<svg xmlns="http://www.w3.org/2000/svg" xmlns:xlink="http://www.w3.org/1999/xlink" width="64" height="30" viewBox="0 0 64 30">
    <g fill="none" fill-rule="evenodd" transform="translate(1 3)">
        <path fill="none" d="M-1-3h64v30H-1z"/>
        <path fill="currentColor" d="M31.337 22c1.66 0 3.403-3.513 3.664-8.298-1.546-.248-2.836-1.096-3.353-2.604-.892 1.672-1.603 3.915-1.745 6.246-.184 3.092.184 4.656 1.434 4.656zm28.416-11.095c-1.505.287-3.42.565-5.425.773-.743 2.75-1.45 6.086-1.45 8.867 0 .8.11 1.6.81 1.6 1.47 0 4.116-2.146 6.653-5.929.294-.436.514-.546.735-.436.515.254.147 4.656-1.765 6.075-2.5 1.855-5.073 2.11-6.175 2.11-1.9 0-4.418-1.151-4.23-3.988-1.742 2.353-4.064 3.988-5.622 3.988-1.14 0-1.949-.4-2.574-.873-.624-.473-.919-1.055-.919-2.22 0-2.452.362-5.928.9-9.421a10.3 10.3 0 0 1-3.644 2.006c-.046 3.688-1.292 7.394-3.137 9.38-.993 1.055-1.801 1.128-2.684 1.128-1.213 0-2.646-.4-3.566-.946-.882-.51-1.433-1.091-1.654-2.474-.478-2.946 0-7.276 1.838-10.331.625-1.055 1.213-1.42 2.353-1.565 1.213-.145 3.345.182 4.595.619 1.25.436 1.801 1.128 2.206 2.474 1.69-.64 2.944-1.61 4.148-3.016.513-2.848 1.113-5.527 1.697-7.462.22-.69.478-.836 1.066-.836.772 0 1.985.218 2.794.691.514.291.735.655.514 1.564-.478 2.037-.919 3.638-2.058 6.403-.81 3.929-1.434 9.095-1.434 11.35 0 .982.22 1.273.551 1.273.863 0 2.954-1.954 5.026-5.246a66.05 66.05 0 0 1 .81-4.472c-.653.027-1.29.042-1.902.042-.625 0-.81-.182-.81-.619 0-.691.148-1.419.405-1.928.22-.437.515-.51 1.14-.51.64 0 1.276.006 1.908.017.363-1.297.77-2.52 1.217-3.581.257-.619.477-.728 1.066-.728.44 0 1.8.218 2.5.51.44.181.588.472.367 1.127-.086.256-.466 1.31-.932 2.808 2.113.1 4.083.242 5.784.393.846.073 1.14.219 1.14.473 0 .255-.478.582-2.242.91zM25.38 1.083c.588.4 1.03.945 1.03 2.073 0 6.803-3.75 20.809-9.705 20.809-3.309 0-4.89-2.765-5.22-7.749-.13-1.866-.196-3.493-.176-5.154-1.726 4.383-4.121 9.065-5.485 11.593-.625 1.164-1.25 1.31-1.985 1.31-.662 0-1.728-.291-2.206-.582s-.772-.546-.956-1.637C-.425 15.234.016 9.196.605 5.92c.147-.8.551-1.346 1.323-1.819.919-.546 1.838-.91 2.83-1.055.773-.11.846.255.699.873-1.063 4.49-1.682 10.706-1.165 17.538C7.098 16.108 9.44 10.6 10.824 6.212c.257-.8.515-1.091 1.14-1.31.772-.254 1.874-.473 2.757-.473.588 0 .992.182.956.946-.147 3.056-.184 7.021.036 10.368.258 3.674.846 5.566 1.985 5.566 2.72 0 4.485-10.986 3.566-20.263-.073-.727.184-.946.662-.946.956 0 2.647.437 3.455.983z"/>
    </g>
</svg>
