<svg height="25" viewBox="0 0 72 25" width="72" xmlns="http://www.w3.org/2000/svg"><path d="m55.4633885 14.168894.00175-.00175c.00175-.002625.0035-.00525.00525-.00875.1505015-.1706249.2607525-.3762498.3491284-.5932497.0280002-.0665.0463754-.1295.0665006-.196875.0507505-.1671249.0822508-.3403748.0927509-.5214997.00525-.0665.0157501-.1295.0140001-.1977499 0-.035.0087501-.0665.0072315-.100625-.0124815-.2091249-.0544819-.4112498-.1192325-.6011247-.0052501-.020125-.0192502-.035875-.0262503-.056-.0770007-.2091249-.1872518-.3946248-.317628-.5643747-.0183752-.023625-.0245003-.055125-.0437504-.07875l-9.022211-10.62774517c-.6903816-.81374964-1.8235174-.82949963-2.5322742-.03237499-.7070067.79624964-.7201318 2.10174905-.0280002 2.91724868l4.8632963 5.7303724c-7.1059427-.94149958-14.0911343.55387475-14.4210124.62737471-21.5654556 3.90862327-36.82647601 23.82361417-34.02032427 44.39397987.13912633 1.0184995.89950858 1.7429992 1.76664184 1.7429992.09275088 0 .18550177-.007875.28000267-.023625.97650931-.1776249 1.64326566-1.2328744 1.49101421-2.3589989-2.49989883-18.3224917 11.42410885-36.1217336 31.09517135-39.688232.0901259-.021 7.3071947-1.5697493 14.1025094-.5022498l-7.5049465 4.456373c-.8793834.5232498-1.2232617 1.7674992-.7708824 2.7798737.4515044 1.0141246 1.5295146 1.4069994 2.411523.8898746l11.8301128-7.0244968c.1601265-.0971249.3036279-.2187499.4296291-.3596248z" fill="#0019ff" transform="matrix(.74314483 .66913061 -.66913061 .74314483 36.927471 -23.543352)"/></svg>