<svg width="81px" height="26px" viewBox="0 0 81 26" version="1.1" xmlns="http://www.w3.org/2000/svg" xmlns:xlink="http://www.w3.org/1999/xlink">
  <rect id="Rectangle" fill="#D8D8D8" opacity="0" x="0" y="0" width="83" height="26"></rect>
  <path d="M29.9235217,17.2739638 C29.8878963,16.8110656 29.4249516,16.7398221 29.3535164,17.238342 L28.0357484,24.8602886 C27.9643131,25.2163215 27.6794951,25.4656738 27.2876165,25.4656738 L18.0975737,25.4656738 C17.741505,25.4656738 17.4923123,25.2163215 17.456687,24.8959104 L15.9249824,12.5726313 C15.8535472,12.0384897 15.4262278,12.0028679 15.2481011,12.5726313 L11.579246,24.9315321 C11.47237,25.287565 11.2586181,25.4656738 10.9379901,25.4656738 L1.67688125,25.4656738 C1.21375197,25.4656738 1,25.2521279 1,24.7890451 L1,1.21113943 C1,0.748056705 1.21375197,0.534326218 1.67688125,0.534326218 L7.51851227,0.534326218 C8.01726688,0.534326218 8.12414287,0.712434957 8.12414287,1.21113943 L8.12414287,9.75906693 C8.12414287,11.7177094 7.98164155,13.5700403 7.83914023,15.2438933 C7.80369949,15.7067914 8.33789484,15.849463 8.51602149,15.3149522 L12.9684493,1.06846787 C13.0753252,0.783678453 13.2178266,0.534326218 13.6809558,0.534326218 L19.3444602,0.534326218 C19.6292783,0.534326218 19.9500908,0.641191462 20.0211569,1.13971136 L21.8733048,15.3505739 C21.9447401,15.8849002 22.5145607,15.849463 22.5858114,15.3149522 C22.8351887,13.4986122 22.97769,11.5754069 23.298318,9.75906693 L24.7942126,1.17551768 C24.8656479,0.819300201 25.0792153,0.534326218 25.5065346,0.534326218 L31.4908515,0.534326218 C31.9537962,0.534326218 32.2744242,0.890359128 32.1675482,1.46030709 L30.8852209,8.65497732 C30.8139703,9.11787547 31.2770996,9.26036246 31.4196009,8.76165799 C33.2717488,2.92061419 37.4393585,0 42.3192903,0 C46.7362773,0 50.7255758,2.81374894 51.1885205,8.72603625 C51.2243304,9.18911897 51.6874597,9.26036246 51.7587104,8.76165799 L53.0764783,1.13971136 C53.147729,0.783678453 53.4325471,0.534326218 53.8244257,0.534326218 L60.2362465,0.534326218 C60.5565053,0.534326218 60.8416926,0.748056705 60.7704419,1.24657661 L57.8851594,17.6301812 C57.8139088,18.0218359 58.0278453,18.3424316 58.4549801,18.3424316 L63.2282204,18.3424316 C63.6557244,18.3424316 63.8692918,18.5561621 63.8692918,18.9836231 L63.8692918,24.7890451 C63.8692918,25.2521279 63.6557244,25.4656738 63.2282204,25.4656738 L49.6211906,25.4656738 C49.1582459,25.4656738 48.8378025,25.1096409 48.9446785,24.5396929 L50.2268212,17.3452072 C50.2982564,16.8821245 49.8707525,16.7398221 49.6926259,17.238342 C47.6623513,23.0083269 43.7084935,26 38.7927519,26 C34.376134,26 30.6004029,23.1506293 29.9235217,17.2739638 M44.8483195,11.1125088 C44.8483195,8.76165799 43.7795596,6.7315875 41.6780344,6.7315875 C38.3298072,6.7315875 36.2995326,10.6850478 36.2995326,14.8876758 C36.2995326,17.238342 37.3681079,19.2685971 39.4696331,19.2685971 C42.8178603,19.2685971 44.8483195,15.3149522 44.8483195,11.1125088 M65.0449276,24.7534234 L67.9656508,8.29857527 C68.0010916,8.01378586 68.0010916,7.65756838 67.4312709,7.65756838 L62.6225898,7.65756838 C62.1596451,7.65756838 61.9457086,7.44383789 61.9457086,7.01656149 L61.9457086,1.21113943 C61.9457086,0.748056705 62.1596451,0.534326218 62.6225898,0.534326218 L81.3229342,0.534326218 C81.786248,0.534326218 82,0.748056705 82,1.21113943 L82,7.01656149 C82,7.44383789 81.8573141,7.65756838 81.3229342,7.65756838 L76.3361264,7.65756838 C76.0158677,7.65756838 75.7664904,7.72881187 75.6596144,8.29857527 L72.738522,24.8602886 C72.7030812,25.1452626 72.5249546,25.4656738 72.0262,25.4656738 L65.6145637,25.4656738 C65.2230543,25.4656738 64.973677,25.1806998 65.0449276,24.7534234" id="New_logo" fill="#202125"></path>
</svg>
